Motion_mu12
version=1
nRows=6
nColumns=43
inDegrees=yes
endheader
time	pelvis_tilt	pelvis_list	pelvis_rotation	pelvis_tx	pelvis_ty	pelvis_tz	hip_flexion_r	hip_adduction_r	hip_rotation_r	knee_angle_r	ankle_angle_r	subtalar_angle_r	mtp_angle_r	hip_flexion_l	hip_adduction_l	hip_rotation_l	knee_angle_l	ankle_angle_l	subtalar_angle_l	mtp_angle_l	lumbar_extension	lumbar_bending	lumbar_rotation	neck_flexion	neck_lateral_bending	neck_rotation	arm_flex_r	arm_add_r	arm_rot_r	elbow_flex_r	pro_sup_r	wrist_flex_r	wrist_dev_r	hand_finger_flex_r	arm_flex_l	arm_add_l	arm_rot_l	elbow_flex_l	pro_sup_l	wrist_flex_l	wrist_dev_l	hand_finger_flex_l
      0.00250000	      3.08485224	     13.00511209	    -87.33725375	     -0.03900144	      1.00919701	      0.75143571	      8.56370020	     -3.95729664	    -15.85346455	    -10.42012618	    -16.70866832	      8.21059790	     34.69995077	      6.71807726	     -3.81245614	     -9.07707775	    -12.64040413	    -27.67916859	     20.91188639	     30.59927501	      0.20718986	     -5.03076363	      3.73758041	     19.92222878	     -2.98459590	     -5.73651946	    -13.34904036	   -140.01874699	   -100.99476866	     54.86132788	     81.22270623	     61.67136648	     11.26669347	    -14.67171804	    150.62587506	    -26.65779203	     48.85817156	     41.36301802	    103.23616526	     49.27231257	      2.98154281	    -25.03366673
      0.00500000	      3.08520527	     13.01766198	    -87.33746878	     -0.03904913	      1.00939589	      0.75181727	      8.56347873	     -3.95802069	    -15.85331734	    -10.42005234	    -16.70853271	      8.21067073	     34.70015900	      6.71905740	     -3.81339604	     -9.07717087	    -12.64014829	    -27.67940202	     20.91180552	     30.59973658	      0.19723754	     -5.03094896	      3.73771843	     19.92033501	     -2.98461746	     -5.73647329	    -13.34916350	   -140.01967487	   -100.99540461	     54.86210357	     81.22213341	     61.67151473	     11.26616495	    -14.67181113	    150.62667074	    -26.65705774	     48.85795266	     41.36372207	    103.23532459	     49.27234529	      2.98076083	    -25.03432939
      0.00750000	      3.10999165	     13.06993724	    -87.38183054	     -0.03941733	      1.00953255	      0.75170756	      8.61879879	     -3.95998066	    -15.84094862	    -10.37052231	    -16.71450824	      8.22857522	     34.72215059	      6.79276040	     -3.82187314	     -9.09938759	    -12.62606554	    -27.73775281	     20.91249481	     30.65101316	      0.06568524	     -5.09453700	      3.63562008	     19.57869619	     -2.99080843	     -5.72346702	    -13.17519892	   -139.98341508	   -101.13519961	     55.01776128	     81.11394419	     61.75886621	     11.18418121	    -14.65597876	    150.92684844	    -26.74267327	     48.74539619	     41.46718779	    103.12348578	     49.29821092	      2.88620961	    -25.10808445
      0.01000000	      3.11051874	     13.08215677	    -87.38118416	     -0.03945663	      1.00972995	      0.75207786	      8.61797469	     -3.96057677	    -15.84065139	    -10.37121375	    -16.71487754	      8.22871557	     34.72231577	      6.79329263	     -3.82303459	     -9.09936041	    -12.62639095	    -27.73846713	     20.91247885	     30.65143172	      0.05667440	     -5.09532094	      3.63628741	     19.57576133	     -2.99059469	     -5.72333512	    -13.17573799	   -139.98460825	   -101.13584752	     55.01881232	     81.11300340	     61.75986368	     11.18353364	    -14.65572621	    150.92684262	    -26.74173384	     48.74558866	     41.46828612	    103.12257627	     49.29888213	      2.88540854	    -25.10858604
      0.01250000	      3.19965613	     13.05590791	    -87.26422616	     -0.03941390	      1.01015078	      0.75255707	      8.58534674	     -4.08721671	    -15.74813115	    -10.46784592	    -16.92645763	      8.29467571	     34.79501712	      6.87723197	     -3.76297166	     -9.11559577	    -12.81169020	    -28.16055018	     20.94559815	     30.84383262	      0.00256456	     -5.25048655	      3.47033519	     18.47440364	     -2.85519273	     -5.66781092	    -13.25087372	   -139.79337753	   -101.34909595	     55.20284944	     80.71391804	     62.40902773	     10.98286088	    -14.46916686	    150.94049081	    -26.86958693	     48.83782260	     41.78710068	    102.74343180	     49.72326774	      2.59508326	    -25.32708232
      0.01500000	      3.19967355	     13.06878076	    -87.26452218	     -0.03943380	      1.01030952	      0.75293360	      8.58528719	     -4.08811032	    -15.74864073	    -10.46702863	    -16.92647913	      8.29456743	     34.79518119	      6.87831198	     -3.76461326	     -9.11542301	    -12.81034954	    -28.16091655	     20.94550648	     30.84424497	     -0.00740995	     -5.25106976	      3.47170631	     18.47183039	     -2.85485867	     -5.66786309	    -13.25155038	   -139.79501081	   -101.34969331	     55.20261615	     80.71352385	     62.40976467	     10.98277550	    -14.46898945	    150.94187697	    -26.86889736	     48.83738471	     41.78747842	    102.74280593	     49.72334144	      2.59468741	    -25.32775799
